<svg xmlns:xlink="http://www.w3.org/1999/xlink" version="1.1" class="highcharts-root" style="font-family:Cardo;font-size:12px;" xmlns="http://www.w3.org/2000/svg" width="672" height="480" viewBox="0 0 672 480"><desc>Created with Highcharts 9.3.1</desc><defs><clipPath id="highcharts-2ucrae9-50-"><rect x="0" y="0" width="614" height="362" fill="none"></rect></clipPath><clipPath id="highcharts-2ucrae9-62-"><rect x="0" y="0" width="614" height="362" fill="none"></rect></clipPath><clipPath id="highcharts-2ucrae9-63-"><rect x="48" y="41" width="614" height="362" fill="none"></rect></clipPath></defs><rect fill="#ffffff" class="highcharts-background" x="0" y="0" width="672" height="480" rx="0" ry="0"></rect><rect fill="none" class="highcharts-plot-background" x="48" y="41" width="614" height="362"></rect><g class="highcharts-pane-group" data-z-index="0"></g><g class="highcharts-grid highcharts-xaxis-grid" data-z-index="1"><path fill="none" stroke-dasharray="none" data-z-index="1" class="highcharts-grid-line" d="M 113.5 41 L 113.5 403" opacity="1"></path><path fill="none" stroke-dasharray="none" data-z-index="1" class="highcharts-grid-line" d="M 234.5 41 L 234.5 403" opacity="1"></path><path fill="none" stroke-dasharray="none" data-z-index="1" class="highcharts-grid-line" d="M 354.5 41 L 354.5 403" opacity="1"></path><path fill="none" stroke-dasharray="none" data-z-index="1" class="highcharts-grid-line" d="M 474.5 41 L 474.5 403" opacity="1"></path><path fill="none" stroke-dasharray="none" data-z-index="1" class="highcharts-grid-line" d="M 595.5 41 L 595.5 403" opacity="1"></path></g><g class="highcharts-grid highcharts-yaxis-grid" data-z-index="1"><path fill="none" stroke="transparent" stroke-width="1" stroke-dasharray="none" data-z-index="1" class="highcharts-grid-line" d="M 48 403.5 L 662 403.5" opacity="1"></path><path fill="none" stroke="transparent" stroke-width="1" stroke-dasharray="none" data-z-index="1" class="highcharts-grid-line" d="M 48 343.5 L 662 343.5" opacity="1"></path><path fill="none" stroke="transparent" stroke-width="1" stroke-dasharray="none" data-z-index="1" class="highcharts-grid-line" d="M 48 282.5 L 662 282.5" opacity="1"></path><path fill="none" stroke="transparent" stroke-width="1" stroke-dasharray="none" data-z-index="1" class="highcharts-grid-line" d="M 48 222.5 L 662 222.5" opacity="1"></path><path fill="none" stroke="transparent" stroke-width="1" stroke-dasharray="none" data-z-index="1" class="highcharts-grid-line" d="M 48 162.5 L 662 162.5" opacity="1"></path><path fill="none" stroke="transparent" stroke-width="1" stroke-dasharray="none" data-z-index="1" class="highcharts-grid-line" d="M 48 101.5 L 662 101.5" opacity="1"></path><path fill="none" stroke="transparent" stroke-width="1" stroke-dasharray="none" data-z-index="1" class="highcharts-grid-line" d="M 48 40.5 L 662 40.5" opacity="1"></path></g><rect fill="none" class="highcharts-plot-border" data-z-index="1" x="48" y="41" width="614" height="362"></rect><g class="highcharts-axis highcharts-xaxis" data-z-index="2"><path fill="none" class="highcharts-tick" stroke="#737373" stroke-width="1" d="M 113.5 403 L 113.5 413" opacity="1"></path><path fill="none" class="highcharts-tick" stroke="#737373" stroke-width="1" d="M 234.5 403 L 234.5 413" opacity="1"></path><path fill="none" class="highcharts-tick" stroke="#737373" stroke-width="1" d="M 354.5 403 L 354.5 413" opacity="1"></path><path fill="none" class="highcharts-tick" stroke="#737373" stroke-width="1" d="M 474.5 403 L 474.5 413" opacity="1"></path><path fill="none" class="highcharts-tick" stroke="#737373" stroke-width="1" d="M 595.5 403 L 595.5 413" opacity="1"></path><path fill="none" class="highcharts-axis-line" data-z-index="7" d="M 48 403 L 662 403"></path></g><g class="highcharts-axis highcharts-yaxis" data-z-index="2"><path fill="none" class="highcharts-tick" stroke="#737373" stroke-width="1" d="M 48 403.5 L 38 403.5" opacity="1"></path><path fill="none" class="highcharts-tick" stroke="#737373" stroke-width="1" d="M 48 343.5 L 38 343.5" opacity="1"></path><path fill="none" class="highcharts-tick" stroke="#737373" stroke-width="1" d="M 48 282.5 L 38 282.5" opacity="1"></path><path fill="none" class="highcharts-tick" stroke="#737373" stroke-width="1" d="M 48 222.5 L 38 222.5" opacity="1"></path><path fill="none" class="highcharts-tick" stroke="#737373" stroke-width="1" d="M 48 162.5 L 38 162.5" opacity="1"></path><path fill="none" class="highcharts-tick" stroke="#737373" stroke-width="1" d="M 48 101.5 L 38 101.5" opacity="1"></path><path fill="none" class="highcharts-tick" stroke="#737373" stroke-width="1" d="M 48 40.5 L 38 40.5" opacity="1"></path><path fill="none" class="highcharts-axis-line" data-z-index="7" d="M 48 41 L 48 403"></path></g><g class="highcharts-series-group" data-z-index="3"><g class="highcharts-series highcharts-series-0 highcharts-scatter-series highcharts-color-0" data-z-index="0.1" opacity="1" transform="translate(48,41) scale(1 1)" clip-path="url(#highcharts-2ucrae9-62-)"></g><g class="highcharts-markers highcharts-series-0 highcharts-scatter-series highcharts-color-0" data-z-index="0.1" opacity="1" transform="translate(48,41) scale(1 1)" clip-path="none"><path fill="#737373" d="M 6 330 A 4 4 0 1 1 6.0039999993333355 329.9999980000002 Z" opacity="1" class="highcharts-point highcharts-color-0"></path><path fill="#737373" d="M 66 262 A 4 4 0 1 1 66.00399999933333 261.9999980000002 Z" opacity="1" class="highcharts-point highcharts-color-0"></path><path fill="#737373" d="M 126 132 A 4 4 0 1 1 126.00399999933333 131.99999800000018 Z" opacity="1" class="highcharts-point highcharts-color-0"></path><path fill="#737373" d="M 186 101 A 4 4 0 1 1 186.00399999933333 100.99999800000016 Z" opacity="1" class="highcharts-point highcharts-color-0"></path><path fill="#737373" d="M 246 101 A 4 4 0 1 1 246.00399999933333 100.99999800000016 Z" opacity="1" class="highcharts-point highcharts-color-0"></path><path fill="#737373" d="M 307 132 A 4 4 0 1 1 307.00399999933336 131.99999800000018 Z" opacity="1" class="highcharts-point highcharts-color-0"></path><path fill="#737373" d="M 367 98 A 4 4 0 1 1 367.00399999933336 97.99999800000016 Z" opacity="1" class="highcharts-point highcharts-color-0"></path><path fill="#737373" d="M 427 113 A 4 4 0 1 1 427.00399999933336 112.99999800000016 Z" opacity="1" class="highcharts-point highcharts-color-0"></path><path fill="#737373" d="M 487 88 A 4 4 0 1 1 487.00399999933336 87.99999800000016 Z" opacity="1" class="highcharts-point highcharts-color-0"></path><path fill="#737373" d="M 547 64 A 4 4 0 1 1 547.0039999993334 63.99999800000017 Z" opacity="1" class="highcharts-point highcharts-color-0"></path><path fill="#737373" d="M 607 113 A 4 4 0 1 1 607.0039999993334 112.99999800000016 Z" opacity="1" class="highcharts-point highcharts-color-0"></path></g></g><text x="336" text-anchor="middle" class="highcharts-title" data-z-index="4" style="color:#333333;font-size:18px;fill:#333333;" y="24"></text><text x="336" text-anchor="middle" class="highcharts-subtitle" data-z-index="4" style="color:#666666;fill:#666666;" y="24">Per capita budget expanditures in constant dollars</text><text x="10" text-anchor="start" class="highcharts-caption" data-z-index="4" style="color:#666666;fill:#666666;" y="477"></text><g class="highcharts-legend highcharts-no-tooltip" data-z-index="7" transform="translate(298,438)"><rect fill="none" class="highcharts-legend-box" rx="0" ry="0" x="0" y="0" width="76" height="27" visibility="visible"></rect><g data-z-index="1"><g><g class="highcharts-legend-item highcharts-scatter-series highcharts-color-0 highcharts-series-0" data-z-index="1" transform="translate(8,3)"><path fill="none" d="M 0 11 L 16 11" class="highcharts-graph"></path><path fill="#737373" d="M 8 15 A 4 4 0 1 1 8.003999999333336 14.999998000000167 Z" class="highcharts-point" opacity="1"></path><text x="21" style="color:#333333;cursor:pointer;font-size:12px;font-weight:bold;fill:#333333;" text-anchor="start" data-z-index="2" y="15">Series 1</text></g></g></g></g><g class="highcharts-axis-labels highcharts-xaxis-labels" data-z-index="7"><text x="114.21568627451" style="color:#666666;cursor:default;font-size:11px;fill:#666666;" text-anchor="middle" transform="translate(0,0)" y="422" opacity="1">1968</text><text x="234.60784313725" style="color:#666666;cursor:default;font-size:11px;fill:#666666;" text-anchor="middle" transform="translate(0,0)" y="422" opacity="1">1970</text><text x="355" style="color:#666666;cursor:default;font-size:11px;fill:#666666;" text-anchor="middle" transform="translate(0,0)" y="422" opacity="1">1972</text><text x="475.39215686275" style="color:#666666;cursor:default;font-size:11px;fill:#666666;" text-anchor="middle" transform="translate(0,0)" y="422" opacity="1">1974</text><text x="595.78431372549" style="color:#666666;cursor:default;font-size:11px;fill:#666666;" text-anchor="middle" transform="translate(0,0)" y="422" opacity="1">1976</text></g><g class="highcharts-axis-labels highcharts-yaxis-labels" data-z-index="7"><text x="33" style="color:#666666;cursor:default;font-size:11px;fill:#666666;" text-anchor="end" transform="translate(0,0)" y="406" opacity="1">$275</text><text x="33" style="color:#666666;cursor:default;font-size:11px;fill:#666666;" text-anchor="end" transform="translate(0,0)" y="346" opacity="1">$300</text><text x="33" style="color:#666666;cursor:default;font-size:11px;fill:#666666;" text-anchor="end" transform="translate(0,0)" y="286" opacity="1">$325</text><text x="33" style="color:#666666;cursor:default;font-size:11px;fill:#666666;" text-anchor="end" transform="translate(0,0)" y="225" opacity="1">$350</text><text x="33" style="color:#666666;cursor:default;font-size:11px;fill:#666666;" text-anchor="end" transform="translate(0,0)" y="165" opacity="1">$375</text><text x="33" style="color:#666666;cursor:default;font-size:11px;fill:#666666;" text-anchor="end" transform="translate(0,0)" y="105" opacity="1">$400</text><text x="33" style="color:#666666;cursor:default;font-size:11px;fill:#666666;" text-anchor="end" transform="translate(0,0)" y="44" opacity="1">$425</text></g><g class="highcharts-control-points" data-z-index="99" clip-path="url(#highcharts-2ucrae9-63-)"></g></svg>